<svg width="39" height="68" viewBox="0 0 39 68" fill="none" xmlns="http://www.w3.org/2000/svg">
<g id="Group 32">
<path id="Vector" d="M11.3004 57.735C11.2019 58.2015 10.9216 58.4345 10.4575 58.4345L9.81593 58.4368L11.5204 50.3895H11.4888L6.69962 58.4345H5.38095L4.07616 50.3895H4.0515L2.4146 57.737C2.30476 58.2014 2.01766 58.4345 1.54924 58.4345H0.941284L2.94573 49.7302C3.05337 49.2727 3.3293 49.0439 3.77566 49.0439H5.08498L6.38778 56.7462L10.7017 49.4768C10.87 49.1874 11.1163 49.0439 11.4395 49.0439H13.1569L11.3004 57.735Z" fill="white"/>
<path id="Vector_2" d="M18.1749 57.4252C18.193 57.4252 18.2154 57.4207 18.2424 57.4117C18.2603 57.4117 18.2783 57.4117 18.2961 57.4117C18.4755 57.4117 18.6237 57.4723 18.7401 57.5931C18.8566 57.7142 18.9148 57.8647 18.9148 58.0441C18.9148 58.0529 18.9148 58.0707 18.9148 58.0978C18.906 58.1247 18.9014 58.1425 18.9014 58.1518L18.8883 58.2995C18.1707 58.4878 17.489 58.5822 16.8432 58.5822C15.9015 58.5822 15.1703 58.3669 14.6504 57.9365C14.0045 57.416 13.6815 56.6044 13.6815 55.5013C13.6815 54.4697 14.0091 53.5504 14.6638 52.7433C15.3813 51.8464 16.3098 51.398 17.4484 51.398C18.2738 51.398 18.9106 51.6291 19.3589 52.0909C19.8073 52.5527 20.0317 53.1962 20.0317 54.0214C20.0317 54.4431 19.9867 54.8601 19.8971 55.2726H15.0808C15.045 55.4161 15.0268 55.5642 15.0268 55.7166C15.0268 56.3891 15.2244 56.8778 15.6191 57.183C15.9598 57.4431 16.4709 57.573 17.1526 57.573C17.4396 57.573 17.7802 57.5237 18.1749 57.4252ZM18.7131 54.3309C18.7401 54.1337 18.7535 53.9632 18.7535 53.8197C18.7535 53.3713 18.6237 53.0258 18.3636 52.7838C18.1031 52.5416 17.7489 52.4205 17.3006 52.4205C16.5561 52.4205 15.9597 52.815 15.5113 53.6044C15.3768 53.8375 15.278 54.0797 15.2155 54.3309H18.7131Z" fill="white"/>
<path id="Vector_3" d="M24.3226 57.5734C24.4933 57.5734 24.639 57.6317 24.7599 57.7485C24.881 57.8651 24.9415 58.0086 24.9415 58.1787C24.9415 58.1968 24.9415 58.2193 24.9415 58.2462C24.9328 58.264 24.928 58.2821 24.928 58.2999L24.8878 58.4615C24.798 58.4974 24.6052 58.5333 24.3092 58.5691C24.112 58.5869 23.8967 58.5958 23.6635 58.5958C23.1074 58.5958 22.6859 58.4345 22.3988 58.1116C22.1477 57.8427 22.0222 57.4974 22.0222 57.0757C22.0222 56.8423 22.0805 56.4211 22.197 55.8112L22.2645 55.4748L22.8517 52.596H21.3495L21.538 51.5732H23.0782L23.3405 50.3221C23.3855 50.1068 23.5199 49.9568 23.7464 49.8761L24.7734 49.5128L24.3362 51.5732H26.2196L26.0179 52.596H24.1164L23.4863 55.5422C23.3967 55.9366 23.3385 56.2818 23.3116 56.5781C23.2956 56.6946 23.2869 56.7798 23.2869 56.8335C23.2869 57.3269 23.5917 57.5734 24.2016 57.5734H24.3226Z" fill="white"/>
<path id="Vector_4" d="M27.7755 51.701C27.8788 51.6157 28.0065 51.5729 28.159 51.5729H28.8182L28.6029 52.6628H28.63C29.1411 51.8287 29.9169 51.4117 30.9573 51.4117C31.0917 51.4117 31.2894 51.4518 31.5493 51.5328L31.2668 52.6493C31.0427 52.5686 30.8633 52.5282 30.7286 52.5282C30.2173 52.5282 29.7553 52.7076 29.343 53.0663C28.9753 53.3804 28.6883 53.7927 28.4819 54.304C28.3565 54.5909 28.2711 54.8467 28.2264 55.0709L27.6076 57.9501C27.5358 58.273 27.3384 58.4343 27.0155 58.4343H26.262L27.446 52.6358C27.4549 52.5729 27.473 52.4834 27.5 52.3669C27.5266 52.2503 27.5536 52.1312 27.5806 52.0104C27.6076 51.8893 27.6724 51.786 27.7755 51.701Z" fill="white"/>
<path id="Vector_5" d="M31.6437 55.5422C31.6437 54.3493 31.98 53.3717 32.6525 52.6091C33.3701 51.8109 34.3388 51.412 35.5586 51.412C36.4915 51.412 37.2311 51.6786 37.7785 52.2124C38.3255 52.746 38.5991 53.4791 38.5991 54.4118C38.5991 55.614 38.2673 56.6004 37.6034 57.3717C36.9039 58.188 35.9576 58.5958 34.7648 58.5958C33.7784 58.5958 33.0113 58.3315 32.4643 57.8022C31.9171 57.2729 31.6437 56.5198 31.6437 55.5422ZM32.989 55.6363C32.989 56.2282 33.1414 56.6992 33.4464 57.0488C33.7513 57.3987 34.1864 57.5734 34.7513 57.5734C35.4421 57.5734 36.0385 57.237 36.5406 56.5646C37.0161 55.9276 37.2539 55.21 37.2539 54.4118C37.2539 53.856 37.101 53.3942 36.7963 53.0262C36.4645 52.6318 36.0339 52.4343 35.5047 52.4343C34.9217 52.4343 34.4106 52.645 33.9712 53.0666C33.5853 53.4523 33.3119 53.9412 33.1506 54.5331C33.0431 54.9099 32.989 55.2776 32.989 55.6363ZM37.9938 50.618H37.2627C37.0744 50.618 36.9329 50.5331 36.8434 50.365L36.285 49.2998L35.2759 50.4703C35.1954 50.569 35.0742 50.618 34.9129 50.618H34.0249L35.6798 48.8156C35.7693 48.7168 35.8816 48.6674 36.0159 48.6674H36.9711L37.9938 50.618Z" fill="white"/>
<path id="Vector_6" fill-rule="evenodd" clip-rule="evenodd" d="M21.2581 0.647118H21.0744C18.4228 0.666857 15.956 1.46632 13.8925 2.82875C18.3338 0.704346 25.5838 2.64866 25.5838 8.46844C25.5838 11.1429 23.8152 13.1222 21.3549 14.1695C19.1851 15.1047 17.6208 17.2442 17.6208 19.4486C17.6208 22.7232 20.7524 25.1498 24.6661 25.1498C30.509 25.1498 34.3191 19.0485 34.3746 13.7281C34.3328 9.44153 32.2505 5.64069 29.0482 3.27766C31.0175 5.12616 32.3596 8.33456 32.3596 12.1873C32.3596 15.9746 30.0127 22.1193 24.9558 22.1193C23.4599 22.1193 22.2053 21.0967 22.1375 19.5575C22.07 17.4413 23.6135 17.2669 25.0447 16.4637C27.5301 15.1047 28.5818 13.8354 29.4323 11.2064C30.7279 7.08733 27.6433 0.728748 21.2581 0.647118Z" fill="white"/>
<path id="Vector_7" fill-rule="evenodd" clip-rule="evenodd" d="M14.4632 33.1761C14.2645 33.816 13.664 34.283 12.9545 34.283C12.8177 34.283 12.6847 34.262 12.5589 34.2353C11.9796 34.0858 11.4022 34.0418 10.8053 34.0418C7.41475 34.0418 6.05424 36.4354 6.05424 38.8307C6.05424 41.0798 7.48775 42.1311 9.51868 42.1311C10.7329 42.1311 11.8399 41.875 12.7285 41.4238L12.366 44.1449C11.5615 44.4135 10.1647 44.6331 9.02724 44.6377H8.9782C4.90659 44.6324 2.57347 42.2239 2.5708 38.7451V38.7336C2.57347 34.529 5.52695 31.5376 10.279 31.5376C12.7135 31.5376 14.0729 31.9578 14.7615 32.2087L14.4632 33.1761ZM26.1894 33.1761C25.984 33.816 25.3856 34.283 24.6743 34.283C24.5407 34.283 24.4081 34.262 24.2814 34.2353C23.6994 34.0858 23.1248 34.0418 22.5302 34.0418C19.1394 34.0418 17.7764 36.4354 17.7764 38.8307C17.7764 41.0798 19.2084 42.1311 21.2426 42.1311C22.4586 42.1311 23.5658 41.875 24.4515 41.4238L24.0894 44.1449C23.2807 44.4135 21.8877 44.6331 20.7527 44.6377H20.7038C16.6299 44.6324 14.295 42.221 14.295 38.7392C14.295 34.5316 17.2535 31.5376 22.0016 31.5376C24.4355 31.5376 25.7938 31.9578 26.4792 32.2087L26.1894 33.1761ZM37.79 34.9519C37.79 31.8457 34.9188 31.7726 32.5333 31.7571H29.802C29.0449 31.7571 28.42 32.289 28.269 32.9921L25.8902 44.2857H29.2497L30.2533 39.3347H30.6126C32.1187 39.3347 32.2275 39.4585 32.5485 41.093L32.9406 43.028C33.0821 43.743 33.7156 44.2857 34.4794 44.2857H36.5361L35.6393 40.4258C35.4576 39.621 35.1364 38.2862 34.1481 38.1983V38.1642C36.0688 37.9331 37.79 37.1602 37.79 34.9519ZM31.8671 36.9611H30.7394L31.3126 34.1224H32.9089C33.9106 34.1468 34.4558 34.522 34.4558 35.4183C34.4558 36.6059 33.322 36.9611 31.8671 36.9611Z" fill="white"/>
<path id="Vector_8" fill-rule="evenodd" clip-rule="evenodd" d="M13.2775 24.4361C12.8206 24.1033 12.3913 23.7422 11.9842 23.3558C9.52049 20.9753 7.98144 17.6469 7.95276 13.9626C8.00014 8.63591 11.7699 2.61001 17.5954 2.61001C21.5301 2.61001 24.7308 5.16788 24.7308 8.42398C24.7308 10.6033 23.2773 12.5189 21.1065 13.433C18.6223 14.5037 16.7445 16.5307 16.7445 19.2278C16.7445 25.0458 23.9895 27.0019 28.431 24.8893C27.4033 25.5661 26.2778 26.1049 25.0748 26.4779C23.873 26.8356 22.6141 27.0437 21.3771 27.0611L21.1627 27.0667H21.0828C14.7094 26.998 11.5998 20.6048 12.918 16.4846C13.7466 13.8349 14.7982 12.5882 17.28 11.206C18.7367 10.4295 20.2585 10.2271 20.1898 8.13138C20.1437 6.57701 18.891 5.5484 17.3714 5.5484C12.3159 5.5484 9.96514 11.7162 9.96514 15.5057C9.96514 19.3331 11.3093 22.5893 13.2775 24.4361Z" fill="white"/>
<path id="Vector_9" d="M11.6598 62.4385C11.6841 62.3315 11.74 62.2427 11.8279 62.1719C11.9156 62.1012 12.0155 62.0659 12.1275 62.0659H13.0994C13.5573 62.0659 13.9129 62.1561 14.1663 62.3365C14.4438 62.5409 14.5827 62.8503 14.5827 63.2643C14.5827 63.7614 14.3684 64.1291 13.9398 64.3677C13.8131 64.4407 13.6793 64.4945 13.5378 64.5286V64.5503C13.8154 64.6429 14.0151 64.7647 14.137 64.9158C14.2687 65.0813 14.3342 65.3055 14.3342 65.5882C14.3342 66.0118 14.1834 66.3651 13.8813 66.6478C13.506 66.9984 12.9605 67.1738 12.2444 67.1738H10.6368L11.6598 62.4385ZM11.4991 66.5747H12.186C12.824 66.5747 13.2429 66.4042 13.4429 66.0631C13.5208 65.9316 13.5597 65.766 13.5597 65.5662C13.5597 65.0839 13.2188 64.8427 12.538 64.8427H11.8732L11.4991 66.5747ZM11.9948 64.2437H12.6597C12.9873 64.2437 13.2579 64.1755 13.4721 64.0388C13.7302 63.8782 13.8568 63.6468 13.8519 63.3447C13.847 63.0718 13.7374 62.8845 13.5221 62.7822C13.3516 62.7042 13.1175 62.6653 12.8193 62.6653H12.3358L11.9948 64.2437Z" fill="white"/>
<path id="Vector_10" d="M16.8753 63.3595C17.5424 63.3595 17.9907 63.5665 18.2199 63.9806C18.3025 64.1313 18.3439 64.3167 18.3439 64.5359C18.3439 64.7114 18.3221 64.9084 18.2782 65.1276L18.0738 66.1652C18.0006 66.5062 17.9421 66.84 17.8983 67.1665H17.6643C17.5668 67.1665 17.4866 67.1359 17.4233 67.075C17.3598 67.0141 17.3282 66.9351 17.3282 66.8376C17.3282 66.8084 17.3309 66.7863 17.3354 66.7718L17.3795 66.5527H17.3647C17.2478 66.7718 17.0796 66.9447 16.8604 67.0714C16.6413 67.1981 16.4052 67.2614 16.1518 67.2614C15.8108 67.2614 15.5306 67.1738 15.3114 66.9983C15.0778 66.8134 14.9606 66.5576 14.9606 66.231C14.9606 65.7344 15.1725 65.3736 15.5964 65.1497C15.947 64.9644 16.4707 64.872 17.1676 64.872C17.2406 64.872 17.321 64.8743 17.4085 64.8791H17.6719C17.6914 64.8025 17.7008 64.7234 17.7008 64.6418C17.7008 64.157 17.4183 63.9148 16.8532 63.9148C16.6778 63.9148 16.4734 63.944 16.2393 64.0023H16.232C16.2127 64.0072 16.1834 64.0095 16.1446 64.0095C16.052 64.0095 15.9739 63.9792 15.9104 63.9184C15.8474 63.8574 15.8157 63.7808 15.8157 63.6882V63.6225L15.8302 63.5493C16.2199 63.4227 16.5682 63.3595 16.8753 63.3595ZM16.3052 66.6915C16.5537 66.6915 16.7779 66.6063 16.9776 66.4368C17.1576 66.287 17.2965 66.0911 17.3939 65.8485C17.4571 65.6939 17.4987 65.5355 17.5181 65.3763H16.9921C16.4368 65.3763 16.0472 65.5112 15.823 65.783C15.7353 65.89 15.6913 66.0276 15.6913 66.1971C15.6913 66.3614 15.7549 66.4881 15.8815 66.5757C15.9936 66.6523 16.1347 66.6915 16.3052 66.6915Z" fill="white"/>
<path id="Vector_11" d="M22.4671 66.9035C22.4524 66.9767 22.4134 67.0398 22.3514 67.0935C22.288 67.1471 22.2151 67.1738 22.1334 67.1738H21.7194L22.1772 64.945C22.2052 64.8038 22.2186 64.6843 22.2186 64.5869C22.2186 64.3825 22.1565 64.2179 22.0324 64.0939C21.9079 63.9694 21.7437 63.9075 21.5389 63.9075C21.2615 63.9075 21.008 64.0049 20.779 64.1998C20.5759 64.3704 20.4177 64.5941 20.3052 64.872C20.2372 65.0376 20.1908 65.1765 20.1664 65.2884L19.8353 66.9035C19.7964 67.0836 19.6868 67.1738 19.5064 67.1738H19.0837L20.1799 61.949C20.2188 61.7687 20.326 61.6788 20.5002 61.6788H20.9314L20.4636 63.9075H20.4785C20.7316 63.5372 21.1239 63.3519 21.6549 63.3519C22.041 63.3519 22.3454 63.452 22.5692 63.6518C22.7934 63.8513 22.9057 64.1412 22.9057 64.5211C22.9057 64.6673 22.8737 64.8964 22.8106 65.208L22.4671 66.9035Z" fill="white"/>
<path id="Vector_12" d="M24.3339 66.9113C24.2933 67.0904 24.1828 67.1806 24.0011 67.1806H23.5811L24.3132 63.7097C24.3518 63.5342 24.4638 63.4467 24.6504 63.4467H25.062L24.3339 66.9113ZM25.3457 62.3433C25.3118 62.5233 25.1985 62.6135 25.0083 62.6135H24.5091L24.6212 62.0948C24.6601 61.9194 24.7672 61.8318 24.9428 61.8318H25.448L25.3457 62.3433Z" fill="white"/>
<path id="Vector_13" d="M27.435 63.3595C28.1022 63.3595 28.5506 63.5665 28.7796 63.9806C28.8622 64.1313 28.9036 64.3167 28.9036 64.5359C28.9036 64.7114 28.8816 64.9084 28.8379 65.1276L28.6335 66.1652C28.5603 66.5062 28.5019 66.84 28.458 67.1665H28.2239C28.1265 67.1665 28.0461 67.1359 27.983 67.075C27.9195 67.0141 27.8879 66.9351 27.8879 66.8376C27.8879 66.8084 27.8905 66.7863 27.8951 66.7718L27.9392 66.5527H27.9243C27.8075 66.7718 27.6394 66.9447 27.4202 67.0714C27.2009 67.1981 26.9649 67.2614 26.7115 67.2614C26.3705 67.2614 26.0903 67.1738 25.8711 66.9983C25.6372 66.8134 25.5203 66.5576 25.5203 66.231C25.5203 65.7344 25.7323 65.3736 26.1563 65.1497C26.5068 64.9644 27.0303 64.872 27.7271 64.872C27.8004 64.872 27.8807 64.8743 27.9681 64.8791H28.2315C28.2509 64.8025 28.2605 64.7234 28.2605 64.6418C28.2605 64.157 27.978 63.9148 27.4129 63.9148C27.2374 63.9148 27.033 63.944 26.7991 64.0023H26.7917C26.7723 64.0072 26.743 64.0095 26.7041 64.0095C26.6117 64.0095 26.5337 63.9792 26.4703 63.9184C26.407 63.8574 26.3754 63.7808 26.3754 63.6882V63.6225L26.3899 63.5493C26.7796 63.4227 27.128 63.3595 27.435 63.3595ZM26.8649 66.6915C27.1134 66.6915 27.3375 66.6063 27.5373 66.4368C27.7173 66.287 27.8564 66.0911 27.9538 65.8485C28.0169 65.6939 28.0583 65.5355 28.0778 65.3763H27.5518C26.9965 65.3763 26.6068 65.5112 26.3827 65.783C26.2951 65.89 26.251 66.0276 26.251 66.1971C26.251 66.3614 26.3145 66.4881 26.4412 66.5757C26.5532 66.6523 26.6943 66.6915 26.8649 66.6915Z" fill="white"/>
</g>
</svg>
