<svg width="40" height="40" viewBox="0 0 40 40" fill="none" xmlns="http://www.w3.org/2000/svg">
<g id="sign-language">
<path id="Vector" d="M27.3335 24.3046C27.8567 24.0731 28.3578 23.7782 28.8247 23.4198L29.4084 22.9719C31.1741 21.6169 32.166 19.5257 32.0779 17.344L31.8581 11.8985C31.8244 11.064 31.0907 10.4189 30.2308 10.4678C29.4042 10.5148 28.7643 11.1876 28.7828 11.9903L28.8319 14.1146L23.1993 7.21429C22.6891 6.58927 21.7529 6.48362 21.1083 6.97831C20.4637 7.47301 20.3547 8.38072 20.8649 9.00574L24.9277 13.9829C25.0313 14.1098 25.0092 14.294 24.8783 14.3944C24.7475 14.4948 24.5575 14.4734 24.4539 14.3465L19.4041 8.16022C18.9403 7.592 18.0892 7.49596 17.5032 7.94569C16.9172 8.39542 16.8181 9.22063 17.2819 9.78884L22.3309 15.9741C22.4349 16.1016 22.4127 16.2866 22.2813 16.3875C22.1499 16.4883 21.959 16.4668 21.855 16.3394L17.7429 11.3018C17.2604 10.7107 16.375 10.6108 15.7654 11.0787C15.1557 11.5465 15.0527 12.405 15.5352 12.9961L18.5321 16.6675M27.3335 24.3046C27.4148 24.7207 27.4568 25.1467 27.4568 25.5779V26.2997C27.4568 29.5633 25.1414 32.3982 21.865 33.1462C21.3202 33.2705 20.7624 33.3333 20.2027 33.3333H14.1412C13.3327 33.3333 12.6773 32.6978 12.6773 31.9139C12.6773 31.13 13.3327 30.4333 14.1412 30.4333H17.42C17.5795 30.4333 17.7088 30.3691 17.7088 30.2144C17.7088 30.0598 17.5795 30 17.42 30L10.7795 29.9344C10.002 29.9344 9.37177 29.3233 9.37177 28.5694C9.37177 27.8156 10.002 27.1333 10.7795 27.1333H17.4054C17.573 27.1333 17.7088 27.0727 17.7088 26.9102C17.7088 26.7477 17.573 26.6778 17.4054 26.6778H9.26989C8.52253 26.6778 7.91667 26.0285 7.91667 25.3038C7.91667 24.5792 8.52253 23.9222 9.26989 23.9222H17.4067C17.5736 23.9222 17.7088 23.8605 17.7088 23.6987C17.7088 23.5369 17.5736 23.4778 17.4067 23.4778H10.8603C10.0382 23.4778 9.37177 22.7596 9.37177 21.9625C9.37177 21.1654 10.0382 20.5192 10.8603 20.5192H19.9362L18.1878 19.2381C17.5272 18.7541 17.3802 17.85 17.8552 17.1924C18.0311 16.9488 18.2683 16.772 18.5321 16.6675M27.3335 24.3046C27.003 22.6139 26.022 21.0884 24.5623 20.0555L20.0221 16.8431C19.5741 16.5261 19.0094 16.4785 18.5321 16.6675M17.1686 20.5192L14.8729 17.6614C14.3711 17.0467 14.4783 16.154 15.1122 15.6675C15.7462 15.181 16.6669 15.2849 17.1686 15.8996L18.1861 17.146" stroke="white" stroke-linejoin="round"/>
</g>
</svg>
